<svg xmlns="http://www.w3.org/2000/svg" preserveAspectRatio="xMidYMid" width="112" height="19"><path d="M104.966 11.851v6.899h-4.874v-6.899L93.243.004h5.674l3.599 6.249L106.14.004h5.674l-6.848 11.847zm-20.225 1.925c1.274 0 2.374-.45 3.149-1.25l3.499 3.449c-1.699 1.7-4.049 2.775-6.648 2.775-5.174 0-9.373-4.199-9.373-9.373 0-5.174 4.199-9.373 9.373-9.373a9.27 9.27 0 0 1 6.598 2.725L87.89 6.203c-.775-.775-1.875-1.225-3.149-1.225-2.55 0-4.399 1.849-4.399 4.399s1.849 4.399 4.399 4.399zM62.417 9.877v8.873h-4.924V.004h1.999l8.873 8.848V.004h4.924V18.75h-2.024l-8.848-8.873zM46.341 18.75a7.35 7.35 0 0 1-7.398-7.399V.004h4.949v11.273c0 1.349 1.1 2.449 2.449 2.449 1.35 0 2.45-1.1 2.45-2.449V.004h4.948v11.347a7.382 7.382 0 0 1-7.398 7.399zm-19.675 0a9.334 9.334 0 0 1-9.348-9.348c0-5.174 4.174-9.398 9.348-9.398s9.373 4.224 9.373 9.398c0 5.174-4.199 9.348-9.373 9.348zm0-13.847c-2.449 0-4.449 2-4.449 4.474 0 2.449 2 4.474 4.449 4.474 2.474 0 4.474-2.025 4.474-4.474 0-2.474-2-4.474-4.474-4.474zM9.241 18.75H-.007V.004h8.273c3 0 5.549 2.575 5.549 5.574 0 1.274-.475 2.449-1.2 3.374 1.275 1.025 2.125 2.599 2.125 4.299 0 2.974-2.525 5.499-5.499 5.499zM7.291 4.078H4.917v3.249h2.374c.9 0 1.625-.724 1.625-1.624 0-.9-.725-1.625-1.625-1.625zm.925 7.373H4.917v3.25h3.299c.9 0 1.625-.725 1.625-1.625s-.775-1.625-1.625-1.625z" fill-rule="evenodd" fill="#fff"/></svg>